<svg width="50" height="47" xmlns="http://www.w3.org/2000/svg" xmlns:xlink="http://www.w3.org/1999/xlink" xmlns:svgjs="http://svgjs.com/svgjs" viewBox="504 4564 50 47"><svg width="50" height="47" xmlns="http://www.w3.org/2000/svg" xmlns:xlink="http://www.w3.org/1999/xlink" xmlns:svgjs="http://svgjs.com/svgjs" viewBox="0.275 0 49.451 47" fill="#fefefe" opacity=".4" x="504" y="4564"><svg xmlns="http://www.w3.org/2000/svg" xmlns:xlink="http://www.w3.org/1999/xlink" width="50" height="47" viewBox="0.41 0.316 49.007 46.578"><path paint-order="stroke fill markers" fill-rule="evenodd" d="M24.913.316c13.533 0 24.504 10.427 24.504 23.29 0 7.254-3.49 13.733-9.575 18.469-3.615 2.838-9.028 4.82-14.929 4.82C11.381 46.894.41 36.467.41 23.604.41 10.743 11.38.316 24.913.316z"/></svg></svg><svg width="42" height="39" xmlns="http://www.w3.org/2000/svg" xmlns:xlink="http://www.w3.org/1999/xlink" xmlns:svgjs="http://svgjs.com/svgjs" viewBox="508 4568 42 39" x="508" y="4568"><svg width="42" height="39" xmlns="http://www.w3.org/2000/svg" xmlns:xlink="http://www.w3.org/1999/xlink" xmlns:svgjs="http://svgjs.com/svgjs" viewBox="0.483 0 41.033 39" fill="#fff" stroke-miterlimit="100" stroke="#000" x="508" y="4568"><svg xmlns="http://www.w3.org/2000/svg" xmlns:xlink="http://www.w3.org/1999/xlink" width="42" height="39" viewBox="0.607 0.333 40.615 38.602"><path paint-order="stroke fill markers" fill-rule="evenodd" d="M20.914.333c11.216 0 20.308 8.641 20.308 19.3 0 10.66-9.092 19.302-20.308 19.302C9.7 38.935.607 30.294.607 19.634.607 8.974 9.699.333 20.914.333z"/></svg></svg><svg width="0" height="11" xmlns="http://www.w3.org/2000/svg" xmlns:xlink="http://www.w3.org/1999/xlink" xmlns:svgjs="http://svgjs.com/svgjs" fill="none" stroke-miterlimit="100" stroke-linecap="round" stroke="#141414" stroke-width="2" x="529" y="4578"><svg xmlns="http://www.w3.org/2000/svg" xmlns:xlink="http://www.w3.org/1999/xlink" width="0" height="11"><path paint-order="stroke fill markers" d="M.035 10.876V2.701.814v10.062"/></svg></svg><svg width="7" height="4" xmlns="http://www.w3.org/2000/svg" xmlns:xlink="http://www.w3.org/1999/xlink" xmlns:svgjs="http://svgjs.com/svgjs" viewBox="0 0.116 7 3.769" fill="none" stroke-miterlimit="100" stroke-linecap="round" stroke="#141414" stroke-width="2" x="525" y="4586"><svg xmlns="http://www.w3.org/2000/svg" xmlns:xlink="http://www.w3.org/1999/xlink" width="7" height="4" viewBox="0.871 0.049 6.109 3.289"><path paint-order="stroke fill markers" d="M.87.049l3.134 3.29L6.98.048H.87"/></svg></svg><svg width="18" height="4" xmlns="http://www.w3.org/2000/svg" xmlns:xlink="http://www.w3.org/1999/xlink" xmlns:svgjs="http://svgjs.com/svgjs" viewBox="0 0.471 18 3.058" fill="none" stroke-miterlimit="100" stroke-linecap="round" stroke="#141414" stroke-width="2" x="520" y="4590"><svg xmlns="http://www.w3.org/2000/svg" width="18" height="4" viewBox="0.835 0.855 16.462 2.797"><path paint-order="stroke fill markers" d="M17.297.855V3.65H.835s0 0 0 0V.855h16.462"/></svg></svg></svg></svg>