<svg width="40" height="40" xmlns="http://www.w3.org/2000/svg" xmlns:xlink="http://www.w3.org/1999/xlink" xmlns:svgjs="http://svgjs.com/svgjs" viewBox="1177 2516 40 40"><svg width="40" height="40" xmlns="http://www.w3.org/2000/svg" xmlns:xlink="http://www.w3.org/1999/xlink" xmlns:svgjs="http://svgjs.com/svgjs" fill="#2699fb" x="1177" y="2516"><svg xmlns="http://www.w3.org/2000/svg" xmlns:xlink="http://www.w3.org/1999/xlink" width="40" height="40" viewBox="0.482 0.382 39.516 39.516"><path paint-order="stroke fill markers" fill-rule="evenodd" d="M37.817.382H2.662a2.18 2.18 0 0 0-2.18 2.18V37.72a2.18 2.18 0 0 0 2.182 2.179h35.153A2.18 2.18 0 0 0 40 37.718v-.001V2.56A2.18 2.18 0 0 0 37.817.38z"/></svg></svg><svg width="18" height="34" xmlns="http://www.w3.org/2000/svg" xmlns:xlink="http://www.w3.org/1999/xlink" xmlns:svgjs="http://svgjs.com/svgjs" viewBox="0.181 0 17.638 34" fill="#fff" x="1193" y="2522"><svg xmlns="http://www.w3.org/2000/svg" width="18" height="34" viewBox="0.459 0.35 17.404 33.549"><path paint-order="stroke fill markers" fill-rule="evenodd" d="M11.766 33.898V18.616h5.151l.772-5.981h-5.923v-3.81c0-1.728.48-2.905 2.957-2.905h3.14V.585C17.317.512 15.443.35 13.261.35c-4.553 0-7.67 2.778-7.67 7.883v4.402H.46v5.982H5.59v15.281h6.175z"/></svg></svg></svg>