<svg width="33" height="33" xmlns="http://www.w3.org/2000/svg" xmlns:xlink="http://www.w3.org/1999/xlink" xmlns:svgjs="http://svgjs.com/svgjs" viewBox="813 2606 33 33"><svg width="33" height="33" xmlns="http://www.w3.org/2000/svg" xmlns:xlink="http://www.w3.org/1999/xlink" xmlns:svgjs="http://svgjs.com/svgjs" fill="#4267b2" x="813" y="2606"><svg xmlns="http://www.w3.org/2000/svg" xmlns:xlink="http://www.w3.org/1999/xlink" width="33" height="33" viewBox="0.416 0.314 32.583 32.584"><path paint-order="stroke fill markers" fill-rule="evenodd" d="M31.2.314H2.214c-.993 0-1.797.806-1.797 1.8V31.1c0 .993.806 1.797 1.799 1.797H31.2c.993 0 1.798-.805 1.798-1.798V2.11c0-.992-.805-1.797-1.798-1.797z"/></svg></svg><svg width="15" height="28" xmlns="http://www.w3.org/2000/svg" xmlns:xlink="http://www.w3.org/1999/xlink" xmlns:svgjs="http://svgjs.com/svgjs" viewBox="0.237 0 14.526 28" fill="#fff" x="826" y="2611"><svg xmlns="http://www.w3.org/2000/svg" width="15" height="28" viewBox="0.589 0.235 14.351 27.663"><path paint-order="stroke fill markers" fill-rule="evenodd" d="M9.913 27.898v-12.6h4.247l.637-4.933H9.913V7.224c0-1.425.395-2.395 2.438-2.395h2.589v-4.4c-.45-.06-1.996-.194-3.794-.194-3.755 0-6.325 2.291-6.325 6.5v3.63H.59v4.932h4.232v12.6h5.092z"/></svg></svg></svg>