<svg width="229" height="72" xmlns="http://www.w3.org/2000/svg" xmlns:xlink="http://www.w3.org/1999/xlink" xmlns:svgjs="http://svgjs.com/svgjs" viewBox="64 2 229 72"><svg width="134" height="18" xmlns="http://www.w3.org/2000/svg" xmlns:xlink="http://www.w3.org/1999/xlink" xmlns:svgjs="http://svgjs.com/svgjs" viewBox="0 0.791 134 16.418" fill="#141414" x="143" y="32"><svg xmlns="http://www.w3.org/2000/svg" xmlns:xlink="http://www.w3.org/1999/xlink" width="134" height="18" viewBox="0.07 0.688 133.592 16.368"><path paint-order="stroke fill markers" fill-rule="evenodd" d="M63.474 12.182v-.755s0-.882 1.054-.929h7.801V7.216l-7.821.018s-.908 0-.908-.881V5.08a.837.837 0 0 1 .926-.881h8.696L73.31.74H61.631c-.558 0-2.244.293-2.244 2.406v11.832s-.294 1.986 2.42 1.986h11.527v-3.843H64.44s-.966-.044-.966-.928v-.012M54.812.735h-2.48c-.667.02-1.116.828-1.116.828L46.644 8.91s-.267.41-.473.41c-.205 0-.485-.42-.485-.42s-4.471-6.85-4.777-7.344C40.38.673 39.802.723 39.802.723h-2.037c-1.96 0-1.962 2.248-1.962 2.248l-.088 13.965 4.51-.042V6.878s5.109 9.091 5.497 9.77c.203.293.323.408.458.408s.294-.088.488-.409c0-.023 5.538-10.174 5.538-10.174l-.015 10.524h4.363s.039-11.285.039-13.739c0-2.453-1.78-2.526-1.78-2.526v.003M15.018 8.33H9.607s.017.176.053.382c.511.102.922.482 1.063.984.02.188.035.97.035 2.306 0 1.073-.587 1.143-.587 1.143H6.71c-2.025 0-2.23-1.721-2.23-1.721V6.629c0-2.266 2.174-2.278 2.174-2.278h8.341V.738s-5.667-.05-9.86-.05S.07 3.714.07 4.913v5.952c0 6.085 4.495 6.115 4.495 6.115h8.103c2.521 0 2.686-2.266 2.686-2.266s-.03-4.994 0-5.659c.03-.664-.347-.725-.347-.725h.012M26.366.69h-2.612a1.395 1.395 0 0 0-1.37.926l-5.861 15.416 4.701-.047 1.113-3.446s5.844.024 5.744.018a110.57 110.57 0 0 1 1.052 3.396h4.954s-5.847-14.702-6.3-15.53c-.452-.83-1.418-.73-1.418-.73l-.003-.002m-2.994 9.493l1.783-5.154 1.698 5.16-3.481-.006zm63.3 2.997h-5.335c-.925 0-.96-.961-.96-.961V.782h-4.358s.065 12.554.065 14.487c0 1.849 1.445 1.696 1.692 1.696h11.13c-1.425 0-2.233-3.758-2.233-3.758v-.026M100.297.78h-6.993c-.881 0-4.463.682-4.463 4.52v6.801s.411 4.942 3.949 4.942c5.78 0 7.933-.108 7.933-.108s4.201-.665 4.201-5.042V5.359s-.42-4.577-4.627-4.577zm-2.08 12.517c-1.088 0-3.403-.026-3.403-.026s-1.68.132-1.68-2.092c0-2.533.12-5.189.12-5.189S93.14 4.29 95.12 4.29h3.675a1.905 1.905 0 0 1 1.84 2.036c0 1.995-.133 4.88-.133 4.88s.35 2.08-2.286 2.08v.012M130.242.752H109.96c-2.095 0-2.303 1.355-2.303 1.963v14.182l4.204.059s-.015-4.921-.015-5.6c0-.881 1.15-.902 1.15-.902h3.76V7.481h-3.82c-1.175 0-1.175-.688-1.175-.688v-2.47h10.498v12.633h4.172V4.381s3.82.1 7.23 0c-.564-2.118-2.115-3.635-3.408-3.635l-.011.006"/></svg></svg><svg width="56" height="40" xmlns="http://www.w3.org/2000/svg" xmlns:xlink="http://www.w3.org/1999/xlink" xmlns:svgjs="http://svgjs.com/svgjs" viewBox="0 0.352 56 39.297" fill="#141414" x="80" y="18"><svg xmlns="http://www.w3.org/2000/svg" xmlns:xlink="http://www.w3.org/1999/xlink" width="56" height="40" viewBox="0.094 0.791 55.519 38.959"><path paint-order="stroke fill markers" fill-rule="evenodd" d="M38.99 39.609c.827.013 1.655-.02 2.479-.097 3.232-.462 5.262-1.819 7.195-5.377.99-1.977.938-5.112.938-5.112l.029-5.524s-.068-2.938-.405-4.407c-.338-1.469-.92-2.674-2.283-4.16a6.138 6.138 0 0 0-1.872-1.36 10.323 10.323 0 0 0-2.788-.882c-1.575-.276-6.056-.218-6.056-.218l-11.423-.076-7.971.156a30.372 30.372 0 0 0-3.185.144c-.89.053-1.74.398-2.415.981a3.82 3.82 0 0 0-1.422 1.936c-.317 1.108-.25 3.723-.25 3.723s.13 4.457.15 5.1c0 .403.162.526.27.562.11.035 2.774.34 2.78.352v-.056a2.739 2.739 0 0 1 2.37-1.642c1.79-.106 21.508-.405 23.12-.44a3.483 3.483 0 0 1 1.555.231c.239.13.426.337.529.588.179.385.24 1.686.24 1.686s-.026 1.763-.026 2.266c0 .673-.343 2.612-2.697 2.612-1.228.04-23.898-.2-23.898-.2a6.446 6.446 0 0 1-2.7-.555c-2.26-1.193-2.983-2.918-3.024-6.626 0-2.556.018-8.579.018-8.579s-.118-2.774 1.804-4.58C11.52 8.65 14.65 8.72 15.088 8.737h.111c.764 0 8.427 0 11.165-.076 2.877-.074 17.45.347 18.181.382.761.018 1.508.206 2.186.552.745.405 1.418.93 1.992 1.554a9.517 9.517 0 0 1 2.04 4.278c.258 1.693.587 7.757.587 7.757s.153 6.32-.435 8.617c-.4 1.566-.882 3.837-2.938 5.794-.373.382-.74.764-.74.764v.02c-.027.062-.089.112 0 .321.255.4.63.708 1.072.881.352.168 1.01-.114 1.663-.529 2.056-1.38 3.161-2.459 4.207-4.633 1.36-2.865 1.434-6.778 1.434-7.295 0-.517-.053-9.696-.053-9.696s.118-3.717-.294-6.096a15.589 15.589 0 0 0-2.459-5.92 8.284 8.284 0 0 0-3.261-2.792 11.888 11.888 0 0 0-1.72-.708c-2.643-.881-5.858-.881-8.52-.964-2.661-.082-13.99-.158-13.99-.158s-8.033.05-11.353.217c-5.254.258-6.576.359-8.956 1.366C2.627 3.382 1 5.774.474 7.73-.052 9.687.12 12.954.12 12.954L.23 26.74c-.04 1.46.022 2.92.185 4.372.376 2.873.882 4.151 1.38 4.918a7.162 7.162 0 0 0 2.892 2.615l.073.035c1.176.562 4.666.958 6.373.964 2.856.114 10.71.1 12.77.106l15.086-.141z"/></svg></svg><svg width="229" height="72" xmlns="http://www.w3.org/2000/svg" xmlns:xlink="http://www.w3.org/1999/xlink" xmlns:svgjs="http://svgjs.com/svgjs" viewBox="0 0.5 229 71" fill="none" x="64" y="2"><svg xmlns="http://www.w3.org/2000/svg" width="229" height="72" viewBox="0 1 229 71"><path paint-order="stroke fill markers" d="M0 1h229v71H0V1z"/></svg></svg></svg>