<svg width="41" height="40" xmlns="http://www.w3.org/2000/svg" xmlns:xlink="http://www.w3.org/1999/xlink" xmlns:svgjs="http://svgjs.com/svgjs" viewBox="1113 2516 41 40"><svg width="41" height="40" xmlns="http://www.w3.org/2000/svg" xmlns:xlink="http://www.w3.org/1999/xlink" xmlns:svgjs="http://svgjs.com/svgjs" viewBox="0.504 0 39.992 40" fill="#2699fb" x="1113" y="2516"><svg xmlns="http://www.w3.org/2000/svg" xmlns:xlink="http://www.w3.org/1999/xlink" width="41" height="40" viewBox="0.553 0 39.89 39.898"><path paint-order="stroke fill markers" fill-rule="evenodd" d="M3.155 2.77C.029 6.016.669 9.465.669 19.943c0 8.7-1.518 17.423 6.427 19.477 2.48.638 24.463.638 26.94-.004 3.309-.853 6-3.537 6.368-8.215.052-.653.052-21.852-.001-22.518C40.012 3.7 36.943.827 32.902.246 31.975.112 31.79.072 27.036.063 10.176.072 6.481-.679 3.155 2.77z"/></svg></svg><svg width="31" height="30" xmlns="http://www.w3.org/2000/svg" xmlns:xlink="http://www.w3.org/1999/xlink" xmlns:svgjs="http://svgjs.com/svgjs" viewBox="0.512 0 29.976 30" fill="#fff" x="1118" y="2521"><svg xmlns="http://www.w3.org/2000/svg" width="31" height="30" viewBox="0.861 0.251 29.383 29.407"><path paint-order="stroke fill markers" fill-rule="evenodd" d="M15.553.266C9.535.266 3.821-.27 1.638 5.332c-.901 2.314-.77 5.318-.77 9.62 0 3.776-.121 7.324.77 9.62 2.178 5.605 7.939 5.068 13.912 5.068 5.762 0 11.704.6 13.913-5.068.903-2.337.77-5.297.77-9.62 0-5.737.317-9.44-2.466-12.222C24.95-.087 21.14.266 15.547.266h.006zm-1.316 2.646c12.553-.02 14.15-1.415 13.269 17.97-.314 6.857-5.534 6.105-11.951 6.105-11.7 0-12.037-.335-12.037-12.041 0-11.841.928-12.027 10.72-12.037v.003zm9.155 2.438a1.762 1.762 0 1 0 0 3.524 1.762 1.762 0 0 0 0-3.524zm-7.839 2.06a7.542 7.542 0 0 0 0 15.084 7.54 7.54 0 0 0 7.54-7.541 7.54 7.54 0 0 0-7.54-7.543zm0 2.647c6.472 0 6.48 9.792 0 9.792-6.47 0-6.48-9.792 0-9.792z"/></svg></svg></svg>