<svg width="53" height="53" xmlns="http://www.w3.org/2000/svg" xmlns:xlink="http://www.w3.org/1999/xlink" xmlns:svgjs="http://svgjs.com/svgjs" viewBox="516 5493 53 53"><svg width="53" height="53" xmlns="http://www.w3.org/2000/svg" xmlns:xlink="http://www.w3.org/1999/xlink" xmlns:svgjs="http://svgjs.com/svgjs" fill="#fff" x="516" y="5493"><svg xmlns="http://www.w3.org/2000/svg" xmlns:xlink="http://www.w3.org/1999/xlink" width="53" height="53" viewBox="0 0 52 52"><path paint-order="stroke fill markers" fill-rule="evenodd" d="M0 0h52v52H0V0z"/></svg></svg><svg width="37" height="37" xmlns="http://www.w3.org/2000/svg" xmlns:xlink="http://www.w3.org/1999/xlink" xmlns:svgjs="http://svgjs.com/svgjs" viewBox="523 5500 37 37" x="523" y="5500"><svg width="10" height="10" xmlns="http://www.w3.org/2000/svg" xmlns:xlink="http://www.w3.org/1999/xlink" xmlns:svgjs="http://svgjs.com/svgjs" viewBox="0 0.011 10 9.979" fill="#2699fb" x="523" y="5500"><svg xmlns="http://www.w3.org/2000/svg" xmlns:xlink="http://www.w3.org/1999/xlink" width="10" height="10" viewBox="0.666 0.909 8.578 8.56"><path paint-order="stroke fill markers" fill-rule="evenodd" d="M4.975.91C7.317.911 9.25 2.845 9.244 5.2 9.238 7.664 7.193 9.52 4.946 9.468 2.668 9.514.666 7.611.666 5.183.666 2.83 2.605.908 4.976.91z"/></svg></svg><svg width="8" height="25" xmlns="http://www.w3.org/2000/svg" xmlns:xlink="http://www.w3.org/1999/xlink" xmlns:svgjs="http://svgjs.com/svgjs" viewBox="0.12 0 7.76 25" fill="#2699fb" x="524" y="5512"><svg xmlns="http://www.w3.org/2000/svg" xmlns:xlink="http://www.w3.org/1999/xlink" width="8" height="25" viewBox="0.267 0.742 7.376 23.764"><path paint-order="stroke fill markers" fill-rule="evenodd" d="M6.463 24.506H1.446a1.18 1.18 0 0 1-1.18-1.18V1.922c0-.651.528-1.18 1.18-1.18h5.017c.652 0 1.18.529 1.18 1.18v21.406a1.18 1.18 0 0 1-1.18 1.179z"/></svg></svg><svg width="24" height="25" xmlns="http://www.w3.org/2000/svg" xmlns:xlink="http://www.w3.org/1999/xlink" xmlns:svgjs="http://svgjs.com/svgjs" viewBox="0.184 0 23.633 25" fill="#2699fb" x="536" y="5512"><svg xmlns="http://www.w3.org/2000/svg" width="24" height="25" viewBox="0.307 0.135 23.043 24.376"><path paint-order="stroke fill markers" fill-rule="evenodd" d="M23.35 8.26A8.126 8.126 0 0 0 15.224.135h-1.287a7.212 7.212 0 0 0-6.324 3.732.506.506 0 0 0-.067-.008V1.23a.49.49 0 0 0-.49-.49H.797a.49.49 0 0 0-.49.49v22.786c0 .27.22.489.49.49h6.397a.49.49 0 0 0 .49-.489V10.854c0-2.275 1.814-4.164 4.09-4.19a4.125 4.125 0 0 1 2.973 1.212 4.125 4.125 0 0 1 1.212 2.926V24.02c0 .27.22.49.49.49l6.412.001c.27 0 .49-.22.49-.49V8.262z"/></svg></svg></svg></svg>