<svg width="13" height="11" xmlns="http://www.w3.org/2000/svg" xmlns:xlink="http://www.w3.org/1999/xlink" xmlns:svgjs="http://svgjs.com/svgjs" viewBox="326 567 13 11"><svg width="13" height="11" xmlns="http://www.w3.org/2000/svg" xmlns:xlink="http://www.w3.org/1999/xlink" xmlns:svgjs="http://svgjs.com/svgjs" viewBox="326 567 13 11" x="326" y="567"><svg width="13" height="11" xmlns="http://www.w3.org/2000/svg" xmlns:xlink="http://www.w3.org/1999/xlink" xmlns:svgjs="http://svgjs.com/svgjs" viewBox="0 0.549 13 9.902" fill="#141414" x="326" y="567"><svg xmlns="http://www.w3.org/2000/svg" width="13" height="11" viewBox="0.034 0.475 12.727 9.695"><path paint-order="stroke fill markers" fill-rule="evenodd" d="M11.643.475H1.153A1.12 1.12 0 0 0 .034 1.593v7.458c0 .615.5 1.118 1.119 1.118h10.49c.614 0 1.119-.5 1.119-1.118V1.593c0-.614-.5-1.118-1.119-1.118zm-.154.746L6.422 6.287 1.31 1.221h10.178zM.78 8.896V1.744l3.592 3.561L.78 8.896zm.527.528L4.901 5.83l1.26 1.248a.373.373 0 0 0 .526 0l1.227-1.229 3.575 3.575H1.307zm10.709-.528L8.442 5.322l3.574-3.574v7.148z"/></svg></svg></svg></svg>