<svg width="33" height="33" xmlns="http://www.w3.org/2000/svg" xmlns:xlink="http://www.w3.org/1999/xlink" xmlns:svgjs="http://svgjs.com/svgjs" viewBox="1075 2606 33 33"><svg width="33" height="33" xmlns="http://www.w3.org/2000/svg" xmlns:xlink="http://www.w3.org/1999/xlink" xmlns:svgjs="http://svgjs.com/svgjs" fill="#fff" x="1075" y="2606"><svg xmlns="http://www.w3.org/2000/svg" xmlns:xlink="http://www.w3.org/1999/xlink" width="33" height="33" viewBox="0.414 0.314 32.583 32.584"><path paint-order="stroke fill markers" fill-rule="evenodd" d="M16.706.314c8.997 0 16.291 7.295 16.291 16.292 0 8.998-7.294 16.292-16.291 16.292-8.998 0-16.292-7.294-16.292-16.292C.414 7.61 7.708.314 16.706.314z"/></svg></svg><svg width="15" height="15" xmlns="http://www.w3.org/2000/svg" xmlns:xlink="http://www.w3.org/1999/xlink" xmlns:svgjs="http://svgjs.com/svgjs" viewBox="1084 2615 15 15" x="1084" y="2615"><svg width="6" height="6" xmlns="http://www.w3.org/2000/svg" xmlns:xlink="http://www.w3.org/1999/xlink" xmlns:svgjs="http://svgjs.com/svgjs" fill="#141414" stroke-miterlimit="100" stroke="#141414" x="1093" y="2615"><svg xmlns="http://www.w3.org/2000/svg" xmlns:xlink="http://www.w3.org/1999/xlink" width="6" height="6" viewBox="0.36 0.011 5.08 5.08"><path paint-order="stroke fill markers" fill-rule="evenodd" d="M2.9 5.09A2.537 2.537 0 0 1 .36 2.552 2.537 2.537 0 0 1 2.9.011a2.537 2.537 0 0 1 2.54 2.54 2.537 2.537 0 0 1-2.54 2.54z"/></svg></svg><svg width="6" height="6" xmlns="http://www.w3.org/2000/svg" xmlns:xlink="http://www.w3.org/1999/xlink" xmlns:svgjs="http://svgjs.com/svgjs" viewBox="0.273 0 5.455 6" fill="#141414" stroke-miterlimit="100" stroke="#141414" x="1093" y="2624"><svg xmlns="http://www.w3.org/2000/svg" xmlns:xlink="http://www.w3.org/1999/xlink" width="6" height="6" viewBox="0.36 0.155 5.08 5.588"><path paint-order="stroke fill markers" fill-rule="evenodd" d="M2.9 5.742C1.495 5.742.36 4.493.36 2.948S1.495.155 2.9.155c1.404 0 2.54 1.248 2.54 2.793 0 1.545-1.136 2.794-2.54 2.794z"/></svg></svg><svg width="6" height="6" xmlns="http://www.w3.org/2000/svg" xmlns:xlink="http://www.w3.org/1999/xlink" xmlns:svgjs="http://svgjs.com/svgjs" viewBox="0.273 0 5.454 6" fill="#141414" stroke-miterlimit="100" stroke="#141414" x="1084" y="2620"><svg xmlns="http://www.w3.org/2000/svg" xmlns:xlink="http://www.w3.org/1999/xlink" width="6" height="6" viewBox="0.216 0.091 5.08 5.588"><path paint-order="stroke fill markers" fill-rule="evenodd" d="M2.756 5.679c-1.404 0-2.54-1.25-2.54-2.794C.216 1.34 1.352.09 2.756.09c1.405 0 2.54 1.249 2.54 2.794s-1.135 2.794-2.54 2.794z"/></svg></svg><svg width="8" height="10" xmlns="http://www.w3.org/2000/svg" xmlns:xlink="http://www.w3.org/1999/xlink" xmlns:svgjs="http://svgjs.com/svgjs" viewBox="0 0.478 8 9.043" fill="none" stroke-miterlimit="100" stroke="#141414" x="1087" y="2618"><svg xmlns="http://www.w3.org/2000/svg" width="8" height="10" viewBox="0.135 0.307 7.703 8.708"><path paint-order="stroke fill markers" d="M7.838.307L.135 4.66l7.703 4.353V.307"/></svg></svg></svg></svg>