<svg width="13" height="14" xmlns="http://www.w3.org/2000/svg" xmlns:xlink="http://www.w3.org/1999/xlink" xmlns:svgjs="http://svgjs.com/svgjs" viewBox="326 596 13 14"><svg width="13" height="14" xmlns="http://www.w3.org/2000/svg" xmlns:xlink="http://www.w3.org/1999/xlink" xmlns:svgjs="http://svgjs.com/svgjs" viewBox="0.089 0 12.823 14" fill="#141414" x="326" y="596"><svg xmlns="http://www.w3.org/2000/svg" width="13" height="14" viewBox="0.447 0.581 11.951 13.049"><path paint-order="stroke fill markers" fill-rule="evenodd" d="M11.139 5.975h-.032v-.791a4.602 4.602 0 0 0-9.206 0v.791h-.193c-.711 0-1.26.63-1.26 1.357V9.35a1.276 1.276 0 0 0 1.26 1.309h1.195a.307.307 0 0 0 .29-.34V6.364c0-.194-.113-.388-.29-.388h-.356v-.791a3.957 3.957 0 0 1 7.914 0v.791h-.356c-.177 0-.29.194-.29.388v3.957a.307.307 0 0 0 .272.337l.018.002h.372l-.032.048a2.553 2.553 0 0 1-2.052 1.017 1.599 1.599 0 0 0-3.165.307c.01.886.73 1.599 1.615 1.599a1.663 1.663 0 0 0 1.163-.5c.207-.213.342-.483.387-.776a3.199 3.199 0 0 0 2.568-1.276l.307-.452c.695-.048 1.13-.484 1.13-1.114V7.493c0-.694-.516-1.518-1.259-1.518zm-8.592 4.037h-.84a.63.63 0 0 1-.614-.644V9.35 7.332c0-.372.26-.71.615-.71h.84v3.39zm4.99 2.665a.954.954 0 0 1-.694.307.985.985 0 0 1-.969-.953.953.953 0 0 1 1.906 0 .857.857 0 0 1-.242.646zm4.216-3.165c0 .436-.42.5-.614.5h-.678v-3.39h.678c.355 0 .614.5.614.871v2.019z"/></svg></svg></svg>