<svg width="41" height="40" xmlns="http://www.w3.org/2000/svg" xmlns:xlink="http://www.w3.org/1999/xlink" xmlns:svgjs="http://svgjs.com/svgjs" viewBox="1050 2516 41 40"><svg width="41" height="40" xmlns="http://www.w3.org/2000/svg" xmlns:xlink="http://www.w3.org/1999/xlink" xmlns:svgjs="http://svgjs.com/svgjs" viewBox="0.5 0 40 40" fill="#2699fb" x="1050" y="2516"><svg xmlns="http://www.w3.org/2000/svg" xmlns:xlink="http://www.w3.org/1999/xlink" width="41" height="40" viewBox="0.126 0 39.898 39.898"><path paint-order="stroke fill markers" fill-rule="evenodd" d="M20.075 39.898c-11.032 0-19.95-8.917-19.95-19.949 0-11.032 8.918-19.95 19.95-19.95s19.949 8.918 19.949 19.95-8.917 19.949-19.95 19.949z"/></svg></svg><svg width="24" height="19" xmlns="http://www.w3.org/2000/svg" xmlns:xlink="http://www.w3.org/1999/xlink" xmlns:svgjs="http://svgjs.com/svgjs" viewBox="1059 2528 24 19" x="1059" y="2528"><svg width="24" height="19" xmlns="http://www.w3.org/2000/svg" xmlns:xlink="http://www.w3.org/1999/xlink" xmlns:svgjs="http://svgjs.com/svgjs" viewBox="0.31 0 23.379 19" fill="#fff" x="1059" y="2528"><svg xmlns="http://www.w3.org/2000/svg" width="24" height="19" viewBox="0.052 0.101 23.242 18.888"><path paint-order="stroke fill markers" fill-rule="evenodd" d="M23.294 2.337a9.515 9.515 0 0 1-2.739.75A4.781 4.781 0 0 0 22.652.449a9.55 9.55 0 0 1-3.028 1.157A4.763 4.763 0 0 0 16.143.101a4.769 4.769 0 0 0-4.644 5.855A13.536 13.536 0 0 1 1.67.973a4.768 4.768 0 0 0 1.475 6.366 4.736 4.736 0 0 1-2.16-.597v.06a4.771 4.771 0 0 0 3.826 4.676 4.761 4.761 0 0 1-2.153.082 4.774 4.774 0 0 0 4.454 3.312 9.568 9.568 0 0 1-5.923 2.04c-.384 0-.764-.021-1.137-.066a13.488 13.488 0 0 0 7.31 2.143c8.77 0 13.566-7.266 13.566-13.568 0-.206-.004-.412-.013-.616a9.668 9.668 0 0 0 2.38-2.468z"/></svg></svg></svg></svg>