<svg width="53" height="53" xmlns="http://www.w3.org/2000/svg" xmlns:xlink="http://www.w3.org/1999/xlink" xmlns:svgjs="http://svgjs.com/svgjs" viewBox="587 5493 53 53"><svg width="53" height="53" xmlns="http://www.w3.org/2000/svg" xmlns:xlink="http://www.w3.org/1999/xlink" xmlns:svgjs="http://svgjs.com/svgjs" fill="#fff" x="587" y="5493"><svg xmlns="http://www.w3.org/2000/svg" xmlns:xlink="http://www.w3.org/1999/xlink" width="53" height="53" viewBox="0 0 52 52"><path paint-order="stroke fill markers" fill-rule="evenodd" d="M0 0h52v52H0V0z"/></svg></svg><svg width="39" height="32" xmlns="http://www.w3.org/2000/svg" xmlns:xlink="http://www.w3.org/1999/xlink" xmlns:svgjs="http://svgjs.com/svgjs" viewBox="0 0.159 39 31.682" fill="#2699fb" x="593" y="5503"><svg xmlns="http://www.w3.org/2000/svg" width="39" height="32" viewBox="0.447 0.919 37.589 30.535"><path paint-order="stroke fill markers" fill-rule="evenodd" d="M.45 28.048a21.9 21.9 0 0 0 11.766 3.407c12.157 0 22.012-9.856 22.012-22.012 0-.303-.007-.604-.018-.905.44-.346 3.159-2.526 3.825-3.927 0 0-2.208.918-4.37 1.134l-.013.001.011-.007c.2-.133 2.984-2.029 3.36-4.287 0 0-1.561.833-3.748 1.563-.362.12-.741.239-1.132.348A7.702 7.702 0 0 0 26.505.92a7.722 7.722 0 0 0-7.524 9.47c-.596-.025-9.676-.534-15.853-8.014 0 0-3.691 5.04 2.2 10.222 0 0-1.79-.071-3.336-.994 0 0-.567 6.105 6.105 7.666 0 0-1.313.497-3.408.143 0 0 1.172 4.933 7.1 5.394 0 0-4.688 4.235-11.342 3.24l.002.002z"/></svg></svg></svg>