<svg width="53" height="53" xmlns="http://www.w3.org/2000/svg" xmlns:xlink="http://www.w3.org/1999/xlink" xmlns:svgjs="http://svgjs.com/svgjs" viewBox="655 5493 53 53"><svg width="53" height="53" xmlns="http://www.w3.org/2000/svg" xmlns:xlink="http://www.w3.org/1999/xlink" xmlns:svgjs="http://svgjs.com/svgjs" fill="#fff" x="655" y="5493"><svg xmlns="http://www.w3.org/2000/svg" xmlns:xlink="http://www.w3.org/1999/xlink" width="53" height="53" viewBox="0 0 52 52"><path paint-order="stroke fill markers" fill-rule="evenodd" d="M0 0h52v52H0V0z"/></svg></svg><svg width="32" height="38" xmlns="http://www.w3.org/2000/svg" xmlns:xlink="http://www.w3.org/1999/xlink" xmlns:svgjs="http://svgjs.com/svgjs" viewBox="666 5500 32 38" x="666" y="5500"><svg width="32" height="22" xmlns="http://www.w3.org/2000/svg" xmlns:xlink="http://www.w3.org/1999/xlink" xmlns:svgjs="http://svgjs.com/svgjs" viewBox="0 0.192 32 21.616" fill="#2699fb" x="666" y="5516"><svg xmlns="http://www.w3.org/2000/svg" xmlns:xlink="http://www.w3.org/1999/xlink" width="32" height="22" viewBox="0.898 0.629 30.454 20.572"><path paint-order="stroke fill markers" fill-rule="evenodd" d="M26.876.744a501.267 501.267 0 0 0-21.504 0A4.574 4.574 0 0 0 .898 5.318V16.51a4.574 4.574 0 0 0 4.474 4.574c7.168.154 14.337.154 21.504 0a4.574 4.574 0 0 0 4.475-4.574V5.318A4.574 4.574 0 0 0 26.876.744zm-5.04 15.819c-.245.735-.784 1.11-1.558 1.102-.63-.005-1.14-.255-1.56-.712l-.178-.188v.765h-1.833V3.89h1.833v4.49s.103-.207.198-.313c.284-.318.63-.563 1.055-.671.704-.176 1.515.041 1.901.864.228.485.292 1.004.292 1.531.003 1.907.003 3.813.001 5.72-.001.356-.038.708-.151 1.05zm-1.74-6.686a1.614 1.614 0 0 0-.129-.568c-.094-.235-.296-.352-.55-.376-.297-.03-.535.09-.75.281-.086.076-.126.188-.126.188l.005 6.055v.15s.051.069.06.078c.174.19.379.34.64.394.43.089.735-.091.819-.49.021-.1.034-.203.034-.306.002-1.803.005-3.605-.004-5.406zM7.476 17.53H5.41V5.847H3.27V3.893h6.351v1.95H7.477V17.53zm7.396-4.85v4.85h-1.83v-1.108c-.066.071-.103.11-.137.149-.394.444-.84.814-1.41 1.01a1.707 1.707 0 0 1-.858.078c-.4-.066-.668-.296-.83-.66-.15-.335-.188-.695-.189-1.056-.004-1.335-.002-8.401-.002-8.47h1.825c.004.062.01 5.135.012 7.608 0 .135 0 .273.028.404.067.333.322.475.642.358.367-.134.648-.388.884-.692.034-.044.034-.122.034-.185V7.463l1.831-.004v5.223zm5.222-2.804a1.614 1.614 0 0 0-.128-.568c-.094-.235-.296-.352-.55-.376-.297-.03-.535.09-.75.281-.086.076-.126.188-.126.188l.005 6.055v.15s.051.069.06.078c.174.19.379.34.64.394.43.089.735-.091.819-.49.021-.1.034-.203.034-.306.002-1.803.005-3.605-.004-5.406zm8.512 6.302c-.318.93-.974 1.446-1.937 1.587-.597.088-1.188.076-1.748-.178-.766-.346-1.2-.97-1.387-1.766a5.32 5.32 0 0 1-.133-1.139c-.015-1.493-.008-2.988-.005-4.481.001-.781.188-1.501.723-2.1.61-.683 1.391-.937 2.283-.88.268.017.542.06.797.145.867.285 1.33.934 1.512 1.796.07.332.096.676.101 1.017.015.796-.005 2.552-.005 2.552h-3.511v2.517a.817.817 0 1 0 1.635 0v-1.294h1.886s.028 1.527-.211 2.224zm-1.675-6.42a.818.818 0 1 0-1.635 0v1.412h1.635V9.76zm-6.965-.45c-.094-.235-.296-.351-.55-.376-.297-.03-.535.09-.75.281-.086.076-.126.188-.126.188l.005 6.055v.15s.051.069.06.078c.174.19.379.34.64.394.43.089.735-.091.819-.49.021-.1.034-.203.034-.305.002-1.804.005-3.606-.004-5.407a1.61 1.61 0 0 0-.128-.568z"/></svg></svg><svg width="6" height="12" xmlns="http://www.w3.org/2000/svg" xmlns:xlink="http://www.w3.org/1999/xlink" xmlns:svgjs="http://svgjs.com/svgjs" viewBox="0 0.181 6 11.639" fill="#2699fb" x="685" y="5503"><svg xmlns="http://www.w3.org/2000/svg" xmlns:xlink="http://www.w3.org/1999/xlink" width="6" height="12" viewBox="0.363 0.802 5.29 10.262"><path paint-order="stroke fill markers" fill-rule="evenodd" d="M5.654.802v10.125H3.776l.002-1.088c-.207.204-.384.395-.579.567-.345.304-.735.53-1.192.62-.702.137-1.3-.085-1.523-.811a2.677 2.677 0 0 1-.122-.756V.802h1.862v7.721c0 .103.009.206.027.306.056.319.291.468.598.362.373-.129.658-.388.9-.693.034-.043.028-.124.028-.188V.802h1.876z"/></svg></svg><svg width="8" height="14" xmlns="http://www.w3.org/2000/svg" xmlns:xlink="http://www.w3.org/1999/xlink" xmlns:svgjs="http://svgjs.com/svgjs" viewBox="0.531 0 6.938 14" fill="#2699fb" x="671" y="5500"><svg xmlns="http://www.w3.org/2000/svg" xmlns:xlink="http://www.w3.org/1999/xlink" width="8" height="14" viewBox="0.74 0.22 6.792 13.705"><path paint-order="stroke fill markers" fill-rule="evenodd" d="M4.136 5.561C3.728 3.844 2.875.22 2.875.22H.74s1.64 5.44 2.374 7.866a.97.97 0 0 1 .038.275v5.564H5.12V8.36a.97.97 0 0 1 .038-.275C5.892 5.66 7.532.22 7.532.22H5.397l-1.26 5.341h-.001z"/></svg></svg><svg width="6" height="12" xmlns="http://www.w3.org/2000/svg" xmlns:xlink="http://www.w3.org/1999/xlink" xmlns:svgjs="http://svgjs.com/svgjs" viewBox="0 0.065 6 11.871" fill="#2699fb" x="678" y="5503"><svg xmlns="http://www.w3.org/2000/svg" width="6" height="12" viewBox="0.415 0.548 5.373 10.63"><path paint-order="stroke fill markers" fill-rule="evenodd" d="M3.102.548A2.686 2.686 0 0 0 .415 3.235v5.257a2.686 2.686 0 1 0 5.373 0V3.235A2.686 2.686 0 0 0 3.102.548zm.775 8.05a.776.776 0 0 1-1.55 0v-5.47a.776.776 0 0 1 1.55 0v5.47z"/></svg></svg></svg></svg>